<svg xmlns="http://www.w3.org/2000/svg" width="880" height="190" viewBox="0 0 880 190" role="img" aria-labelledby="t d">
<title id="t">Language mix across 63 repositories</title>
<desc id="d">TypeScript 59.32%, Python 17.76%, Swift 5.40%, Kotlin 5.27%, HTML 3.07%, CSS 2.70%, Astro 2.29%, JavaScript 1.23%, Other 2.97%</desc>
<style>text{font-family:-apple-system, BlinkMacSystemFont, "Segoe UI", Helvetica, Arial, sans-serif}</style>
<text x="0" y="16" fill="#0b0b0b" font-size="15" font-weight="600">Language mix</text>
<text x="0" y="36" fill="#898781" font-size="11">12.49 MB of source across 63 repositories  ·  public and private, forks and archives excluded  ·  19 Aug 2026</text>
<clipPath id="bar"><rect x="0" y="52" width="880" height="22" rx="4"/></clipPath>
<g clip-path="url(#bar)">
<rect x="0.00" y="52" width="520.02" height="22" fill="#2a78d6"/>
<text x="10.00" y="67" fill="#ffffff" font-size="11" font-weight="600">59.32%</text>
<rect x="522.02" y="52" width="154.28" height="22" fill="#eb6834"/>
<text x="532.02" y="67" fill="#ffffff" font-size="11" font-weight="600">17.76%</text>
<rect x="678.30" y="52" width="45.52" height="22" fill="#1baf7a"/>
<rect x="725.82" y="52" width="44.34" height="22" fill="#eda100"/>
<rect x="772.16" y="52" width="25.03" height="22" fill="#e87ba4"/>
<rect x="799.19" y="52" width="21.72" height="22" fill="#008300"/>
<rect x="822.91" y="52" width="18.12" height="22" fill="#4a3aa7"/>
<rect x="843.03" y="52" width="8.85" height="22" fill="#e34948"/>
<rect x="853.88" y="52" width="24.12" height="22" fill="#898781"/>
</g>
<rect x="0" y="95" width="9" height="9" rx="2" fill="#2a78d6"/>
<text x="16" y="104" fill="#52514e" font-size="12">TypeScript</text>
<text x="259.3333333333333" y="104" fill="#0b0b0b" font-size="12" font-weight="600" text-anchor="end" style="font-variant-numeric:tabular-nums">59.32%</text>
<rect x="293.3333333333333" y="95" width="9" height="9" rx="2" fill="#eb6834"/>
<text x="309.3333333333333" y="104" fill="#52514e" font-size="12">Python</text>
<text x="552.6666666666666" y="104" fill="#0b0b0b" font-size="12" font-weight="600" text-anchor="end" style="font-variant-numeric:tabular-nums">17.76%</text>
<rect x="586.6666666666666" y="95" width="9" height="9" rx="2" fill="#1baf7a"/>
<text x="602.6666666666666" y="104" fill="#52514e" font-size="12">Swift</text>
<text x="846" y="104" fill="#0b0b0b" font-size="12" font-weight="600" text-anchor="end" style="font-variant-numeric:tabular-nums">5.40%</text>
<rect x="0" y="119" width="9" height="9" rx="2" fill="#eda100"/>
<text x="16" y="128" fill="#52514e" font-size="12">Kotlin</text>
<text x="259.3333333333333" y="128" fill="#0b0b0b" font-size="12" font-weight="600" text-anchor="end" style="font-variant-numeric:tabular-nums">5.27%</text>
<rect x="293.3333333333333" y="119" width="9" height="9" rx="2" fill="#e87ba4"/>
<text x="309.3333333333333" y="128" fill="#52514e" font-size="12">HTML</text>
<text x="552.6666666666666" y="128" fill="#0b0b0b" font-size="12" font-weight="600" text-anchor="end" style="font-variant-numeric:tabular-nums">3.07%</text>
<rect x="586.6666666666666" y="119" width="9" height="9" rx="2" fill="#008300"/>
<text x="602.6666666666666" y="128" fill="#52514e" font-size="12">CSS</text>
<text x="846" y="128" fill="#0b0b0b" font-size="12" font-weight="600" text-anchor="end" style="font-variant-numeric:tabular-nums">2.70%</text>
<rect x="0" y="143" width="9" height="9" rx="2" fill="#4a3aa7"/>
<text x="16" y="152" fill="#52514e" font-size="12">Astro</text>
<text x="259.3333333333333" y="152" fill="#0b0b0b" font-size="12" font-weight="600" text-anchor="end" style="font-variant-numeric:tabular-nums">2.29%</text>
<rect x="293.3333333333333" y="143" width="9" height="9" rx="2" fill="#e34948"/>
<text x="309.3333333333333" y="152" fill="#52514e" font-size="12">JavaScript</text>
<text x="552.6666666666666" y="152" fill="#0b0b0b" font-size="12" font-weight="600" text-anchor="end" style="font-variant-numeric:tabular-nums">1.23%</text>
<rect x="586.6666666666666" y="143" width="9" height="9" rx="2" fill="#898781"/>
<text x="602.6666666666666" y="152" fill="#52514e" font-size="12">Other</text>
<text x="846" y="152" fill="#0b0b0b" font-size="12" font-weight="600" text-anchor="end" style="font-variant-numeric:tabular-nums">2.97%</text>
<text x="0" y="178" fill="#898781" font-size="10">Other: MDX 1.18%  ·  Shell 0.68%  ·  Elixir 0.54%  ·  Java 0.35%  ·  Objective-C++ 0.05%  ·  MATLAB 0.04%  ·  Objective-C 0.04%  ·  and 4 more</text>
</svg>
